<?xml version="1.0" encoding="UTF-8" standalone="no"?>
<!-- Created with Inkscape (http://www.inkscape.org/) -->

<svg
   xmlns="http://www.w3.org/2000/svg"
   width="120"
   height="120"
   viewBox="0 0 120 120"
   id="svg13691">
  <defs
     id="defs13693" />
  <g
     id="layer1">
    <g
       id="g2600"
       transform="matrix(1,0,0,-1,84.571429,3.7908014)">
      <path
         d="m 0,0 28,0 c 0.552,0 1,-0.447 1,-1 l 0,-3 c 0,-0.553 -0.448,-1 -1,-1 L 0,-5 c -0.552,0 -1,0.447 -1,1 l 0,3 c 0,0.553 0.448,1 1,1"
         style="fill:#85858b;fill-opacity:1;fill-rule:nonzero;stroke:none"
         id="path2602" />
    </g>
    <g
       id="g2604"
       transform="matrix(1,0,0,-1,84.571429,13.790801)">
      <path
         d="m 0,0 28,0 c 0.552,0 1,-0.447 1,-1 l 0,-3 c 0,-0.553 -0.448,-1 -1,-1 L 0,-5 c -0.552,0 -1,0.447 -1,1 l 0,3 c 0,0.553 0.448,1 1,1"
         style="fill:#bab9bf;fill-opacity:1;fill-rule:nonzero;stroke:none"
         id="path2606" />
    </g>
    <g
       id="g2608"
       transform="matrix(1,0,0,-1,84.571429,23.790801)">
      <path
         d="m 0,0 28,0 c 0.552,0 1,-0.447 1,-1 l 0,-3 c 0,-0.553 -0.448,-1 -1,-1 L 0,-5 c -0.552,0 -1,0.447 -1,1 l 0,3 c 0,0.553 0.448,1 1,1"
         style="fill:#bab9bf;fill-opacity:1;fill-rule:nonzero;stroke:none"
         id="path2610" />
    </g>
    <g
       id="g2612"
       transform="matrix(1,0,0,-1,49.571429,3.7908014)">
      <path
         d="m 0,0 23,0 c 0.552,0 1,-0.447 1,-1 l 0,-3 c 0,-0.553 -0.448,-1 -1,-1 L 0,-5 c -0.552,0 -1,0.447 -1,1 l 0,3 c 0,0.553 0.448,1 1,1"
         style="fill:#85858b;fill-opacity:1;fill-rule:nonzero;stroke:none"
         id="path2614" />
    </g>
    <g
       id="g2616"
       transform="matrix(1,0,0,-1,49.571429,13.790801)">
      <path
         d="m 0,0 23,0 c 0.552,0 1,-0.447 1,-1 l 0,-3 c 0,-0.553 -0.448,-1 -1,-1 L 0,-5 c -0.552,0 -1,0.447 -1,1 l 0,3 c 0,0.553 0.448,1 1,1"
         style="fill:#bab9bf;fill-opacity:1;fill-rule:nonzero;stroke:none"
         id="path2618" />
    </g>
    <g
       id="g2620"
       transform="matrix(1,0,0,-1,49.571429,23.790801)">
      <path
         d="m 0,0 23,0 c 0.552,0 1,-0.447 1,-1 l 0,-3 c 0,-0.553 -0.448,-1 -1,-1 L 0,-5 c -0.552,0 -1,0.447 -1,1 l 0,3 c 0,0.553 0.448,1 1,1"
         style="fill:#bab9bf;fill-opacity:1;fill-rule:nonzero;stroke:none"
         id="path2622" />
    </g>
    <g
       id="g2624"
       transform="matrix(1,0,0,-1,4.5714287,33.790801)">
      <path
         d="m 0,0 33,0 c 0.552,0 1,-0.447 1,-1 l 0,-3 c 0,-0.553 -0.448,-1 -1,-1 L 0,-5 c -0.552,0 -1,0.447 -1,1 l 0,3 c 0,0.553 0.448,1 1,1"
         style="fill:#85858b;fill-opacity:1;fill-rule:nonzero;stroke:none"
         id="path2626" />
    </g>
    <g
       id="g2628"
       transform="matrix(1,0,0,-1,4.5714287,43.790801)">
      <path
         d="m 0,0 33,0 c 0.552,0 1,-0.447 1,-1 l 0,-3 c 0,-0.553 -0.448,-1 -1,-1 L 0,-5 c -0.552,0 -1,0.447 -1,1 l 0,3 c 0,0.553 0.448,1 1,1"
         style="fill:#bab9bf;fill-opacity:1;fill-rule:nonzero;stroke:none"
         id="path2630" />
    </g>
    <g
       id="g2632"
       transform="matrix(1,0,0,-1,84.571429,88.790801)">
      <path
         d="m 0,0 28,0 c 0.552,0 1,-0.447 1,-1 l 0,-3 c 0,-0.553 -0.448,-1 -1,-1 L 0,-5 c -0.552,0 -1,0.447 -1,1 l 0,3 c 0,0.553 0.448,1 1,1"
         style="fill:#85858b;fill-opacity:1;fill-rule:nonzero;stroke:none"
         id="path2634" />
    </g>
    <g
       id="g2636"
       transform="matrix(1,0,0,-1,84.571429,98.790801)">
      <path
         d="m 0,0 28,0 c 0.552,0 1,-0.447 1,-1 l 0,-3 c 0,-0.553 -0.448,-1 -1,-1 L 0,-5 c -0.552,0 -1,0.447 -1,1 l 0,3 c 0,0.553 0.448,1 1,1"
         style="fill:#bab9bf;fill-opacity:1;fill-rule:nonzero;stroke:none"
         id="path2638" />
    </g>
    <g
       id="g2640"
       transform="matrix(1,0,0,-1,84.571429,108.7908)">
      <path
         d="m 0,0 28,0 c 0.552,0 1,-0.447 1,-1 l 0,-3 c 0,-0.553 -0.448,-1 -1,-1 L 0,-5 c -0.552,0 -1,0.447 -1,1 l 0,3 c 0,0.553 0.448,1 1,1"
         style="fill:#bab9bf;fill-opacity:1;fill-rule:nonzero;stroke:none"
         id="path2642" />
    </g>
    <g
       id="g2644"
       transform="matrix(1,0,0,-1,4.5714287,68.790801)">
      <path
         d="m 0,0 33,0 c 0.552,0 1,-0.447 1,-1 l 0,-3 c 0,-0.553 -0.448,-1 -1,-1 L 0,-5 c -0.552,0 -1,0.447 -1,1 l 0,3 c 0,0.553 0.448,1 1,1"
         style="fill:#bab9bf;fill-opacity:1;fill-rule:nonzero;stroke:none"
         id="path2646" />
    </g>
    <g
       id="g2648"
       transform="matrix(1,0,0,-1,4.5714287,78.790801)">
      <path
         d="m 0,0 33,0 c 0.552,0 1,-0.447 1,-1 l 0,-3 c 0,-0.553 -0.448,-1 -1,-1 L 0,-5 c -0.552,0 -1,0.447 -1,1 l 0,3 c 0,0.553 0.448,1 1,1"
         style="fill:#bab9bf;fill-opacity:1;fill-rule:nonzero;stroke:none"
         id="path2650" />
    </g>
    <g
       id="g2652"
       transform="matrix(1,0,0,-1,24.571429,98.790801)">
      <path
         d="m 0,0 13,0 c 0.552,0 1,-0.447 1,-1 l 0,-3 c 0,-0.553 -0.448,-1 -1,-1 L 0,-5 c -0.552,0 -1,0.447 -1,1 l 0,3 c 0,0.553 0.448,1 1,1"
         style="fill:#bab9bf;fill-opacity:1;fill-rule:nonzero;stroke:none"
         id="path2654" />
    </g>
    <g
       id="g2656"
       transform="matrix(1,0,0,-1,24.571429,108.7908)">
      <path
         d="m 0,0 13,0 c 0.552,0 1,-0.447 1,-1 l 0,-3 c 0,-0.553 -0.448,-1 -1,-1 L 0,-5 c -0.552,0 -1,0.447 -1,1 l 0,3 c 0,0.553 0.448,1 1,1"
         style="fill:#bab9bf;fill-opacity:1;fill-rule:nonzero;stroke:none"
         id="path2658" />
    </g>
    <g
       id="g2660"
       transform="matrix(1,0,0,-1,5.5714287,3.7908014)">
      <path
         d="m 0,0 31,0 c 1.104,0 2,-0.896 2,-2 l 0,-21 c 0,-1.104 -0.896,-2 -2,-2 l -31,0 c -1.104,0 -2,0.896 -2,2 l 0,21 c 0,1.104 0.896,2 2,2"
         style="fill:#c9c7c9;fill-opacity:1;fill-rule:nonzero;stroke:none"
         id="path2662" />
    </g>
    <g
       id="g2664"
       transform="matrix(1,0,0,-1,5.5714287,98.790801)">
      <path
         d="m 0,0 11,0 c 1.104,0 2,-0.896 2,-2 l 0,-11 c 0,-1.104 -0.896,-2 -2,-2 l -11,0 c -1.104,0 -2,0.896 -2,2 l 0,11 c 0,1.104 0.896,2 2,2"
         style="fill:#c9c7c9;fill-opacity:1;fill-rule:nonzero;stroke:none"
         id="path2666" />
    </g>
    <g
       id="g2668"
       transform="matrix(1,0,0,-1,85.571429,38.790801)">
      <path
         d="m 0,0 11,0 c 1.104,0 2,-0.896 2,-2 l 0,-11 c 0,-1.104 -0.896,-2 -2,-2 l -11,0 c -1.104,0 -2,0.896 -2,2 l 0,11 c 0,1.104 0.896,2 2,2"
         style="fill:#c9c7c9;fill-opacity:1;fill-rule:nonzero;stroke:none"
         id="path2670" />
    </g>
    <g
       id="g2672"
       transform="matrix(1,0,0,-1,49.571429,38.790801)">
      <path
         d="m 0,0 23,0 c 0.552,0 1,-0.447 1,-1 l 0,-3 c 0,-0.553 -0.448,-1 -1,-1 L 0,-5 c -0.552,0 -1,0.447 -1,1 l 0,3 c 0,0.553 0.448,1 1,1"
         style="fill:#85858b;fill-opacity:1;fill-rule:nonzero;stroke:none"
         id="path2674" />
    </g>
    <g
       id="g2676"
       transform="matrix(1,0,0,-1,49.571429,48.790801)">
      <path
         d="m 0,0 23,0 c 0.552,0 1,-0.447 1,-1 l 0,-3 c 0,-0.553 -0.448,-1 -1,-1 L 0,-5 c -0.552,0 -1,0.447 -1,1 l 0,3 c 0,0.553 0.448,1 1,1"
         style="fill:#bab9bf;fill-opacity:1;fill-rule:nonzero;stroke:none"
         id="path2678" />
    </g>
    <g
       id="g2680"
       transform="matrix(1,0,0,-1,49.571429,58.790801)">
      <path
         d="m 0,0 23,0 c 0.552,0 1,-0.447 1,-1 l 0,-3 c 0,-0.553 -0.448,-1 -1,-1 L 0,-5 c -0.552,0 -1,0.447 -1,1 l 0,3 c 0,0.553 0.448,1 1,1"
         style="fill:#bab9bf;fill-opacity:1;fill-rule:nonzero;stroke:none"
         id="path2682" />
    </g>
    <g
       id="g2684"
       transform="matrix(1,0,0,-1,49.571429,73.790801)">
      <path
         d="m 0,0 23,0 c 0.552,0 1,-0.447 1,-1 l 0,-3 c 0,-0.553 -0.448,-1 -1,-1 L 0,-5 c -0.552,0 -1,0.447 -1,1 l 0,3 c 0,0.553 0.448,1 1,1"
         style="fill:#85858b;fill-opacity:1;fill-rule:nonzero;stroke:none"
         id="path2686" />
    </g>
    <g
       id="g2688"
       transform="matrix(1,0,0,-1,49.571429,83.790801)">
      <path
         d="m 0,0 23,0 c 0.552,0 1,-0.447 1,-1 l 0,-3 c 0,-0.553 -0.448,-1 -1,-1 L 0,-5 c -0.552,0 -1,0.447 -1,1 l 0,3 c 0,0.553 0.448,1 1,1"
         style="fill:#bab9bf;fill-opacity:1;fill-rule:nonzero;stroke:none"
         id="path2690" />
    </g>
    <g
       id="g2692"
       transform="matrix(1,0,0,-1,4.5714287,58.790801)">
      <path
         d="m 0,0 33,0 c 0.552,0 1,-0.447 1,-1 l 0,-3 c 0,-0.553 -0.448,-1 -1,-1 L 0,-5 c -0.552,0 -1,0.447 -1,1 l 0,3 c 0,0.553 0.448,1 1,1"
         style="fill:#85858b;fill-opacity:1;fill-rule:nonzero;stroke:none"
         id="path2694" />
    </g>
    <g
       id="g2696"
       transform="matrix(1,0,0,-1,4.5714287,88.790801)">
      <path
         d="m 0,0 33,0 c 0.552,0 1,-0.447 1,-1 l 0,-3 c 0,-0.553 -0.448,-1 -1,-1 L 0,-5 c -0.552,0 -1,0.447 -1,1 l 0,3 c 0,0.553 0.448,1 1,1"
         style="fill:#bab9bf;fill-opacity:1;fill-rule:nonzero;stroke:none"
         id="path2698" />
    </g>
    <g
       id="g2700"
       transform="matrix(1,0,0,-1,104.57143,38.790801)">
      <path
         d="M 0,0 8,0 C 8.552,0 9,-0.447 9,-1 L 9,-4 C 9,-4.553 8.552,-5 8,-5 l -8,0 c -0.552,0 -1,0.447 -1,1 l 0,3 c 0,0.553 0.448,1 1,1"
         style="fill:#85858b;fill-opacity:1;fill-rule:nonzero;stroke:none"
         id="path2702" />
    </g>
    <g
       id="g2704"
       transform="matrix(1,0,0,-1,104.57143,48.790801)">
      <path
         d="M 0,0 8,0 C 8.552,0 9,-0.447 9,-1 L 9,-4 C 9,-4.553 8.552,-5 8,-5 l -8,0 c -0.552,0 -1,0.447 -1,1 l 0,3 c 0,0.553 0.448,1 1,1"
         style="fill:#85858b;fill-opacity:1;fill-rule:nonzero;stroke:none"
         id="path2706" />
    </g>
    <g
       id="g2708"
       transform="matrix(1,0,0,-1,85.571429,63.790801)">
      <path
         d="m 0,0 11,0 c 1.104,0 2,-0.896 2,-2 l 0,-11 c 0,-1.104 -0.896,-2 -2,-2 l -11,0 c -1.104,0 -2,0.896 -2,2 l 0,11 c 0,1.104 0.896,2 2,2"
         style="fill:#c9c7c9;fill-opacity:1;fill-rule:nonzero;stroke:none"
         id="path2710" />
    </g>
    <g
       id="g2712"
       transform="matrix(1,0,0,-1,104.57143,63.790801)">
      <path
         d="M 0,0 8,0 C 8.552,0 9,-0.447 9,-1 L 9,-4 C 9,-4.553 8.552,-5 8,-5 l -8,0 c -0.552,0 -1,0.447 -1,1 l 0,3 c 0,0.553 0.448,1 1,1"
         style="fill:#85858b;fill-opacity:1;fill-rule:nonzero;stroke:none"
         id="path2714" />
    </g>
    <g
       id="g2716"
       transform="matrix(1,0,0,-1,104.57143,73.790801)">
      <path
         d="M 0,0 8,0 C 8.552,0 9,-0.447 9,-1 L 9,-4 C 9,-4.553 8.552,-5 8,-5 l -8,0 c -0.552,0 -1,0.447 -1,1 l 0,3 c 0,0.553 0.448,1 1,1"
         style="fill:#85858b;fill-opacity:1;fill-rule:nonzero;stroke:none"
         id="path2718" />
    </g>
    <g
       id="g2720"
       transform="matrix(1,0,0,-1,50.571429,93.790801)">
      <path
         d="m 0,0 21,0 c 1.104,0 2,-0.896 2,-2 l 0,-16 c 0,-1.104 -0.896,-2 -2,-2 l -21,0 c -1.104,0 -2,0.896 -2,2 l 0,16 c 0,1.104 0.896,2 2,2"
         style="fill:#c9c7c9;fill-opacity:1;fill-rule:nonzero;stroke:none"
         id="path2722" />
    </g>
  </g>
</svg>
