<?xml version="1.0" encoding="UTF-8" standalone="no"?>
<!-- Created with Inkscape (http://www.inkscape.org/) -->

<svg
   xmlns="http://www.w3.org/2000/svg"
   width="120"
   height="120"
   viewBox="0 0 120 120"
   id="svg13691">
  <defs
     id="defs13693" />
  <g
     id="layer1">
    <g
       id="g3956"
       transform="matrix(1,0,0,-1,4.8571441,3.4336314)">
      <path
         d="m 0,0 106,0 c 1.104,0 2,-0.896 2,-2 l 0,-31 c 0,-1.104 -0.896,-2 -2,-2 L 0,-35 c -1.104,0 -2,0.896 -2,2 l 0,31 c 0,1.104 0.896,2 2,2"
         style="fill:#dad9db;fill-opacity:1;fill-rule:nonzero;stroke:none"
         id="path3958" />
    </g>
    <g
       id="g3960"
       transform="matrix(1,0,0,-1,4.8571441,48.433631)">
      <path
         d="m 0,0 46,0 c 1.104,0 2,-0.896 2,-2 l 0,-41 c 0,-1.104 -0.896,-2 -2,-2 l -46,0 c -1.104,0 -2,0.896 -2,2 l 0,41 c 0,1.104 0.896,2 2,2"
         style="fill:#dad9db;fill-opacity:1;fill-rule:nonzero;stroke:none"
         id="path3962" />
    </g>
    <g
       id="g3964"
       transform="matrix(1,0,0,-1,13.857144,68.433631)">
      <path
         d="m 0,0 28,0 c 0.553,0 1,-0.447 1,-1 l 0,-3 c 0,-0.553 -0.447,-1 -1,-1 L 0,-5 c -0.553,0 -1,0.447 -1,1 l 0,3 c 0,0.553 0.447,1 1,1"
         style="fill:#bab9bf;fill-opacity:1;fill-rule:nonzero;stroke:none"
         id="path3966" />
    </g>
    <g
       id="g3968"
       transform="matrix(1,0,0,-1,13.857144,78.433631)">
      <path
         d="m 0,0 28,0 c 0.553,0 1,-0.447 1,-1 l 0,-3 c 0,-0.553 -0.447,-1 -1,-1 L 0,-5 c -0.553,0 -1,0.447 -1,1 l 0,3 c 0,0.553 0.447,1 1,1"
         style="fill:#bab9bf;fill-opacity:1;fill-rule:nonzero;stroke:none"
         id="path3970" />
    </g>
    <g
       id="g3972"
       transform="matrix(1,0,0,-1,13.857144,58.433631)">
      <path
         d="m 0,0 28,0 c 0.553,0 1,-0.447 1,-1 l 0,-3 c 0,-0.553 -0.447,-1 -1,-1 L 0,-5 c -0.553,0 -1,0.447 -1,1 l 0,3 c 0,0.553 0.447,1 1,1"
         style="fill:#85858b;fill-opacity:1;fill-rule:nonzero;stroke:none"
         id="path3974" />
    </g>
    <g
       id="g3976"
       transform="matrix(1,0,0,-1,64.857144,48.433631)">
      <path
         d="m 0,0 46,0 c 1.104,0 2,-0.896 2,-2 l 0,-41 c 0,-1.104 -0.896,-2 -2,-2 l -46,0 c -1.104,0 -2,0.896 -2,2 l 0,41 c 0,1.104 0.896,2 2,2"
         style="fill:#dad9db;fill-opacity:1;fill-rule:nonzero;stroke:none"
         id="path3978" />
    </g>
    <g
       id="g3980"
       transform="matrix(1,0,0,-1,73.857144,68.433631)">
      <path
         d="m 0,0 28,0 c 0.553,0 1,-0.447 1,-1 l 0,-3 c 0,-0.553 -0.447,-1 -1,-1 L 0,-5 c -0.553,0 -1,0.447 -1,1 l 0,3 c 0,0.553 0.447,1 1,1"
         style="fill:#bab9bf;fill-opacity:1;fill-rule:nonzero;stroke:none"
         id="path3982" />
    </g>
    <g
       id="g3984"
       transform="matrix(1,0,0,-1,73.857144,78.433631)">
      <path
         d="m 0,0 28,0 c 0.553,0 1,-0.447 1,-1 l 0,-3 c 0,-0.553 -0.447,-1 -1,-1 L 0,-5 c -0.553,0 -1,0.447 -1,1 l 0,3 c 0,0.553 0.447,1 1,1"
         style="fill:#bab9bf;fill-opacity:1;fill-rule:nonzero;stroke:none"
         id="path3986" />
    </g>
    <g
       id="g3988"
       transform="matrix(1,0,0,-1,73.857144,58.433631)">
      <path
         d="m 0,0 28,0 c 0.553,0 1,-0.447 1,-1 l 0,-3 c 0,-0.553 -0.447,-1 -1,-1 L 0,-5 c -0.553,0 -1,0.447 -1,1 l 0,3 c 0,0.553 0.447,1 1,1"
         style="fill:#85858b;fill-opacity:1;fill-rule:nonzero;stroke:none"
         id="path3990" />
    </g>
    <g
       id="g3992"
       transform="matrix(1,0,0,-1,4.8571441,103.43363)">
      <path
         d="m 0,0 106,0 c 1.104,0 2,-0.896 2,-2 l 0,-6 c 0,-1.104 -0.896,-2 -2,-2 L 0,-10 c -1.104,0 -2,0.896 -2,2 l 0,6 c 0,1.104 0.896,2 2,2"
         style="fill:#bab9bf;fill-opacity:1;fill-rule:nonzero;stroke:none"
         id="path3994" />
    </g>
  </g>
</svg>
