<?xml version="1.0" encoding="UTF-8" standalone="no"?>
<!-- Created with Inkscape (http://www.inkscape.org/) -->

<svg
   xmlns="http://www.w3.org/2000/svg"
   width="120"
   height="120"
   viewBox="0 0 120 120"
   id="svg13691">
  <defs
     id="defs13693" />
  <g
     id="layer1">
    <g
       id="g1792"
       transform="matrix(1,0,0,-1,5.2142899,4.5050628)">
      <path
         d="m 0,0 46,0 c 1.104,0 2,-0.896 2,-2 l 0,-46 c 0,-1.104 -0.896,-2 -2,-2 l -46,0 c -1.104,0 -2,0.896 -2,2 l 0,46 c 0,1.104 0.896,2 2,2"
         style="fill:#c9c7c9;fill-opacity:1;fill-rule:nonzero;stroke:none"
         id="path1794" />
    </g>
    <g
       id="g1796"
       transform="matrix(1,0,0,-1,5.2142899,64.505063)">
      <path
         d="m 0,0 16,0 c 1.104,0 2,-0.896 2,-2 l 0,-16 c 0,-1.104 -0.896,-2 -2,-2 l -16,0 c -1.104,0 -2,0.896 -2,2 l 0,16 c 0,1.104 0.896,2 2,2"
         style="fill:#c9c7c9;fill-opacity:1;fill-rule:nonzero;stroke:none"
         id="path1798" />
    </g>
    <g
       id="g1800"
       transform="matrix(1,0,0,-1,75.21429,54.505063)">
      <path
         d="m 0,0 26,0 c 1.104,0 2,-0.896 2,-2 l 0,-6 c 0,-1.104 -0.896,-2 -2,-2 l -26,0 c -1.104,0 -2,0.896 -2,2 l 0,6 c 0,1.104 0.896,2 2,2"
         style="fill:#bebdbf;fill-opacity:1;fill-rule:nonzero;stroke:none"
         id="path1802" />
    </g>
    <g
       id="g1804"
       transform="matrix(1,0,0,-1,64.21429,34.505063)">
      <path
         d="m 0,0 48,0 c 0.552,0 1,-0.447 1,-1 l 0,-3 c 0,-0.553 -0.448,-1 -1,-1 L 0,-5 c -0.552,0 -1,0.447 -1,1 l 0,3 c 0,0.553 0.448,1 1,1"
         style="fill:#bab9bf;fill-opacity:1;fill-rule:nonzero;stroke:none"
         id="path1806" />
    </g>
    <g
       id="g1808"
       transform="matrix(1,0,0,-1,64.21429,24.505063)">
      <path
         d="m 0,0 48,0 c 0.552,0 1,-0.447 1,-1 l 0,-3 c 0,-0.553 -0.448,-1 -1,-1 L 0,-5 c -0.552,0 -1,0.447 -1,1 l 0,3 c 0,0.553 0.448,1 1,1"
         style="fill:#bab9bf;fill-opacity:1;fill-rule:nonzero;stroke:none"
         id="path1810" />
    </g>
    <g
       id="g1812"
       transform="matrix(1,0,0,-1,64.21429,14.505063)">
      <path
         d="m 0,0 48,0 c 0.552,0 1,-0.447 1,-1 l 0,-3 c 0,-0.553 -0.448,-1 -1,-1 L 0,-5 c -0.552,0 -1,0.447 -1,1 l 0,3 c 0,0.553 0.448,1 1,1"
         style="fill:#bab9bf;fill-opacity:1;fill-rule:nonzero;stroke:none"
         id="path1814" />
    </g>
    <g
       id="g1816"
       transform="matrix(1,0,0,-1,64.21429,4.5050628)">
      <path
         d="m 0,0 33,0 c 0.552,0 1,-0.447 1,-1 l 0,-3 c 0,-0.553 -0.448,-1 -1,-1 L 0,-5 c -0.552,0 -1,0.447 -1,1 l 0,3 c 0,0.553 0.448,1 1,1"
         style="fill:#85858b;fill-opacity:1;fill-rule:nonzero;stroke:none"
         id="path1818" />
    </g>
    <g
       id="g1820"
       transform="matrix(1,0,0,-1,35.21429,64.505063)">
      <path
         d="m 0,0 16,0 c 1.104,0 2,-0.896 2,-2 l 0,-16 c 0,-1.104 -0.896,-2 -2,-2 l -16,0 c -1.104,0 -2,0.896 -2,2 l 0,16 c 0,1.104 0.896,2 2,2"
         style="fill:#c9c7c9;fill-opacity:1;fill-rule:nonzero;stroke:none"
         id="path1822" />
    </g>
    <g
       id="g1824"
       transform="matrix(1,0,0,-1,5.2142899,94.505063)">
      <path
         d="m 0,0 16,0 c 1.104,0 2,-0.896 2,-2 l 0,-16 c 0,-1.104 -0.896,-2 -2,-2 l -16,0 c -1.104,0 -2,0.896 -2,2 l 0,16 c 0,1.104 0.896,2 2,2"
         style="fill:#c9c7c9;fill-opacity:1;fill-rule:nonzero;stroke:none"
         id="path1826" />
    </g>
    <g
       id="g1828"
       transform="matrix(1,0,0,-1,35.21429,94.505063)">
      <path
         d="m 0,0 16,0 c 1.104,0 2,-0.896 2,-2 l 0,-16 c 0,-1.104 -0.896,-2 -2,-2 l -16,0 c -1.104,0 -2,0.896 -2,2 l 0,16 c 0,1.104 0.896,2 2,2"
         style="fill:#c9c7c9;fill-opacity:1;fill-rule:nonzero;stroke:none"
         id="path1830" />
    </g>
  </g>
</svg>
