<?xml version="1.0" encoding="UTF-8" standalone="no"?>
<!-- Created with Inkscape (http://www.inkscape.org/) -->

<svg
   xmlns="http://www.w3.org/2000/svg"
   width="120"
   height="120"
   viewBox="0 0 120 120"
   id="svg13691">
  <defs
     id="defs13693" />
  <g
     id="layer1">
    <g
       id="g2500"
       transform="matrix(1,0,0,-1,74.21428,3.4336314)">
      <path
         d="m 0,0 38,0 c 0.552,0 1,-0.447 1,-1 l 0,-3 c 0,-0.553 -0.448,-1 -1,-1 L 0,-5 c -0.552,0 -1,0.447 -1,1 l 0,3 c 0,0.553 0.448,1 1,1"
         style="fill:#85858b;fill-opacity:1;fill-rule:nonzero;stroke:none"
         id="path2502" />
    </g>
    <g
       id="g2504"
       transform="matrix(1,0,0,-1,74.21428,13.433631)">
      <path
         d="m 0,0 38,0 c 0.552,0 1,-0.447 1,-1 l 0,-3 c 0,-0.553 -0.448,-1 -1,-1 L 0,-5 c -0.552,0 -1,0.447 -1,1 l 0,3 c 0,0.553 0.448,1 1,1"
         style="fill:#bab9bf;fill-opacity:1;fill-rule:nonzero;stroke:none"
         id="path2506" />
    </g>
    <g
       id="g2508"
       transform="matrix(1,0,0,-1,74.21428,23.433631)">
      <path
         d="m 0,0 38,0 c 0.552,0 1,-0.447 1,-1 l 0,-3 c 0,-0.553 -0.448,-1 -1,-1 L 0,-5 c -0.552,0 -1,0.447 -1,1 l 0,3 c 0,0.553 0.448,1 1,1"
         style="fill:#bab9bf;fill-opacity:1;fill-rule:nonzero;stroke:none"
         id="path2510" />
    </g>
    <g
       id="g2512"
       transform="matrix(1,0,0,-1,4.21428,58.433631)">
      <path
         d="m 0,0 18,0 c 0.552,0 1,-0.447 1,-1 l 0,-3 c 0,-0.553 -0.448,-1 -1,-1 L 0,-5 c -0.552,0 -1,0.447 -1,1 l 0,3 c 0,0.553 0.448,1 1,1"
         style="fill:#85858b;fill-opacity:1;fill-rule:nonzero;stroke:none"
         id="path2514" />
    </g>
    <g
       id="g2516"
       transform="matrix(1,0,0,-1,5.21428,3.4336314)">
      <path
         d="m 0,0 61,0 c 1.104,0 2,-0.896 2,-2 l 0,-21 c 0,-1.104 -0.896,-2 -2,-2 l -61,0 c -1.104,0 -2,0.896 -2,2 l 0,21 c 0,1.104 0.896,2 2,2"
         style="fill:#c9c7c9;fill-opacity:1;fill-rule:nonzero;stroke:none"
         id="path2518" />
    </g>
    <g
       id="g2520"
       transform="matrix(1,0,0,-1,5.21428,38.433631)">
      <path
         d="m 0,0 16,0 c 1.104,0 2,-0.896 2,-2 l 0,-11 c 0,-1.104 -0.896,-2 -2,-2 l -16,0 c -1.104,0 -2,0.896 -2,2 l 0,11 c 0,1.104 0.896,2 2,2"
         style="fill:#c9c7c9;fill-opacity:1;fill-rule:nonzero;stroke:none"
         id="path2522" />
    </g>
    <g
       id="g2524"
       transform="matrix(1,0,0,-1,35.21428,38.433631)">
      <path
         d="m 0,0 16,0 c 1.104,0 2,-0.896 2,-2 l 0,-11 c 0,-1.104 -0.896,-2 -2,-2 l -16,0 c -1.104,0 -2,0.896 -2,2 l 0,11 c 0,1.104 0.896,2 2,2"
         style="fill:#c9c7c9;fill-opacity:1;fill-rule:nonzero;stroke:none"
         id="path2526" />
    </g>
    <g
       id="g2528"
       transform="matrix(1,0,0,-1,65.21428,38.433631)">
      <path
         d="m 0,0 16,0 c 1.104,0 2,-0.896 2,-2 l 0,-11 c 0,-1.104 -0.896,-2 -2,-2 l -16,0 c -1.104,0 -2,0.896 -2,2 l 0,11 c 0,1.104 0.896,2 2,2"
         style="fill:#c9c7c9;fill-opacity:1;fill-rule:nonzero;stroke:none"
         id="path2530" />
    </g>
    <g
       id="g2532"
       transform="matrix(1,0,0,-1,95.21428,38.433631)">
      <path
         d="m 0,0 16,0 c 1.104,0 2,-0.896 2,-2 l 0,-11 c 0,-1.104 -0.896,-2 -2,-2 l -16,0 c -1.104,0 -2,0.896 -2,2 l 0,11 c 0,1.104 0.896,2 2,2"
         style="fill:#c9c7c9;fill-opacity:1;fill-rule:nonzero;stroke:none"
         id="path2534" />
    </g>
    <g
       id="g2536"
       transform="matrix(1,0,0,-1,34.21428,58.433631)">
      <path
         d="m 0,0 18,0 c 0.552,0 1,-0.447 1,-1 l 0,-3 c 0,-0.553 -0.448,-1 -1,-1 L 0,-5 c -0.552,0 -1,0.447 -1,1 l 0,3 c 0,0.553 0.448,1 1,1"
         style="fill:#85858b;fill-opacity:1;fill-rule:nonzero;stroke:none"
         id="path2538" />
    </g>
    <g
       id="g2540"
       transform="matrix(1,0,0,-1,64.21428,58.433631)">
      <path
         d="m 0,0 18,0 c 0.552,0 1,-0.447 1,-1 l 0,-3 c 0,-0.553 -0.448,-1 -1,-1 L 0,-5 c -0.552,0 -1,0.447 -1,1 l 0,3 c 0,0.553 0.448,1 1,1"
         style="fill:#85858b;fill-opacity:1;fill-rule:nonzero;stroke:none"
         id="path2542" />
    </g>
    <g
       id="g2544"
       transform="matrix(1,0,0,-1,94.21428,58.433631)">
      <path
         d="m 0,0 18,0 c 0.552,0 1,-0.447 1,-1 l 0,-3 c 0,-0.553 -0.448,-1 -1,-1 L 0,-5 c -0.552,0 -1,0.447 -1,1 l 0,3 c 0,0.553 0.448,1 1,1"
         style="fill:#85858b;fill-opacity:1;fill-rule:nonzero;stroke:none"
         id="path2546" />
    </g>
    <g
       id="g2548"
       transform="matrix(1,0,0,-1,85.21428,73.433631)">
      <path
         d="m 0,0 26,0 c 1.104,0 2,-0.896 2,-2 l 0,-16 c 0,-1.104 -0.896,-2 -2,-2 l -26,0 c -1.104,0 -2,0.896 -2,2 l 0,16 c 0,1.104 0.896,2 2,2"
         style="fill:#c9c7c9;fill-opacity:1;fill-rule:nonzero;stroke:none"
         id="path2550" />
    </g>
    <g
       id="g2552"
       transform="matrix(1,0,0,-1,84.21428,98.433631)">
      <path
         d="m 0,0 28,0 c 0.552,0 1,-0.447 1,-1 l 0,-3 c 0,-0.553 -0.448,-1 -1,-1 L 0,-5 c -0.552,0 -1,0.447 -1,1 l 0,3 c 0,0.553 0.448,1 1,1"
         style="fill:#85858b;fill-opacity:1;fill-rule:nonzero;stroke:none"
         id="path2554" />
    </g>
    <g
       id="g2556"
       transform="matrix(1,0,0,-1,84.21428,108.43363)">
      <path
         d="m 0,0 28,0 c 0.552,0 1,-0.447 1,-1 l 0,-3 c 0,-0.553 -0.448,-1 -1,-1 L 0,-5 c -0.552,0 -1,0.447 -1,1 l 0,3 c 0,0.553 0.448,1 1,1"
         style="fill:#bab9bf;fill-opacity:1;fill-rule:nonzero;stroke:none"
         id="path2558" />
    </g>
    <g
       id="g2560"
       transform="matrix(1,0,0,-1,45.21428,73.433631)">
      <path
         d="m 0,0 26,0 c 1.104,0 2,-0.896 2,-2 l 0,-16 c 0,-1.104 -0.896,-2 -2,-2 l -26,0 c -1.104,0 -2,0.896 -2,2 l 0,16 c 0,1.104 0.896,2 2,2"
         style="fill:#c9c7c9;fill-opacity:1;fill-rule:nonzero;stroke:none"
         id="path2562" />
    </g>
    <g
       id="g2564"
       transform="matrix(1,0,0,-1,44.21428,98.433631)">
      <path
         d="m 0,0 28,0 c 0.552,0 1,-0.447 1,-1 l 0,-3 c 0,-0.553 -0.448,-1 -1,-1 L 0,-5 c -0.552,0 -1,0.447 -1,1 l 0,3 c 0,0.553 0.448,1 1,1"
         style="fill:#85858b;fill-opacity:1;fill-rule:nonzero;stroke:none"
         id="path2566" />
    </g>
    <g
       id="g2568"
       transform="matrix(1,0,0,-1,44.21428,108.43363)">
      <path
         d="m 0,0 28,0 c 0.552,0 1,-0.447 1,-1 l 0,-3 c 0,-0.553 -0.448,-1 -1,-1 L 0,-5 c -0.552,0 -1,0.447 -1,1 l 0,3 c 0,0.553 0.448,1 1,1"
         style="fill:#bab9bf;fill-opacity:1;fill-rule:nonzero;stroke:none"
         id="path2570" />
    </g>
    <g
       id="g2572"
       transform="matrix(1,0,0,-1,5.21428,73.433631)">
      <path
         d="m 0,0 26,0 c 1.104,0 2,-0.896 2,-2 l 0,-16 c 0,-1.104 -0.896,-2 -2,-2 l -26,0 c -1.104,0 -2,0.896 -2,2 l 0,16 c 0,1.104 0.896,2 2,2"
         style="fill:#c9c7c9;fill-opacity:1;fill-rule:nonzero;stroke:none"
         id="path2574" />
    </g>
    <g
       id="g2576"
       transform="matrix(1,0,0,-1,4.21428,98.433631)">
      <path
         d="m 0,0 28,0 c 0.552,0 1,-0.447 1,-1 l 0,-3 c 0,-0.553 -0.448,-1 -1,-1 L 0,-5 c -0.552,0 -1,0.447 -1,1 l 0,3 c 0,0.553 0.448,1 1,1"
         style="fill:#85858b;fill-opacity:1;fill-rule:nonzero;stroke:none"
         id="path2578" />
    </g>
    <g
       id="g2580"
       transform="matrix(1,0,0,-1,4.21428,108.43363)">
      <path
         d="m 0,0 28,0 c 0.552,0 1,-0.447 1,-1 l 0,-3 c 0,-0.553 -0.448,-1 -1,-1 L 0,-5 c -0.552,0 -1,0.447 -1,1 l 0,3 c 0,0.553 0.448,1 1,1"
         style="fill:#bab9bf;fill-opacity:1;fill-rule:nonzero;stroke:none"
         id="path2582" />
    </g>
  </g>
</svg>
