<?xml version="1.0" encoding="UTF-8" standalone="no"?>
<!-- Created with Inkscape (http://www.inkscape.org/) -->

<svg
   xmlns="http://www.w3.org/2000/svg"
   width="120"
   height="120"
   viewBox="0 0 120 120"
   id="svg13691">
  <defs
     id="defs13693" />
  <g
     id="layer1">
    <g
       id="g1992"
       transform="matrix(1,0,0,-1,3.5714285,4.5050585)">
      <path
         d="m 0,0 0,-67.5 45,0 0,50.625 L 30,0 Z"
         style="fill:#bab9bf;fill-opacity:1;fill-rule:nonzero;stroke:none"
         id="path1994" />
    </g>
    <g
       id="g1996"
       transform="matrix(1,0,0,-1,33.571428,4.5050585)">
      <path
         d="m 0,0 15,-16.875 -15,0 z"
         style="fill:#85858b;fill-opacity:1;fill-rule:nonzero;stroke:none"
         id="path1998" />
    </g>
    <g
       id="g2000"
       transform="matrix(1,0,0,-1,59.571428,69.505059)">
      <path
         d="m 0,0 53,0 c 0.553,0 1,-0.447 1,-1 l 0,-3 c 0,-0.553 -0.447,-1 -1,-1 L 0,-5 c -0.553,0 -1,0.447 -1,1 l 0,3 c 0,0.553 0.447,1 1,1"
         style="fill:#bab9bf;fill-opacity:1;fill-rule:nonzero;stroke:none"
         id="path2002" />
    </g>
    <g
       id="g2004"
       transform="matrix(1,0,0,-1,59.571428,59.505059)">
      <path
         d="m 0,0 53,0 c 0.553,0 1,-0.447 1,-1 l 0,-3 c 0,-0.553 -0.447,-1 -1,-1 L 0,-5 c -0.553,0 -1,0.447 -1,1 l 0,3 c 0,0.553 0.447,1 1,1"
         style="fill:#bab9bf;fill-opacity:1;fill-rule:nonzero;stroke:none"
         id="path2006" />
    </g>
    <g
       id="g2008"
       transform="matrix(1,0,0,-1,59.571428,49.505059)">
      <path
         d="m 0,0 53,0 c 0.553,0 1,-0.447 1,-1 l 0,-3 c 0,-0.553 -0.447,-1 -1,-1 L 0,-5 c -0.553,0 -1,0.447 -1,1 l 0,3 c 0,0.553 0.447,1 1,1"
         style="fill:#bab9bf;fill-opacity:1;fill-rule:nonzero;stroke:none"
         id="path2010" />
    </g>
    <g
       id="g2012"
       transform="matrix(1,0,0,-1,59.571428,39.505059)">
      <path
         d="m 0,0 53,0 c 0.553,0 1,-0.447 1,-1 l 0,-3 c 0,-0.553 -0.447,-1 -1,-1 L 0,-5 c -0.553,0 -1,0.447 -1,1 l 0,3 c 0,0.553 0.447,1 1,1"
         style="fill:#bab9bf;fill-opacity:1;fill-rule:nonzero;stroke:none"
         id="path2014" />
    </g>
    <g
       id="g2016"
       transform="matrix(1,0,0,-1,59.571428,29.505059)">
      <path
         d="m 0,0 53,0 c 0.553,0 1,-0.447 1,-1 l 0,-3 c 0,-0.553 -0.447,-1 -1,-1 L 0,-5 c -0.553,0 -1,0.447 -1,1 l 0,3 c 0,0.553 0.447,1 1,1"
         style="fill:#bab9bf;fill-opacity:1;fill-rule:nonzero;stroke:none"
         id="path2018" />
    </g>
    <g
       id="g2020"
       transform="matrix(1,0,0,-1,59.571428,19.505059)">
      <path
         d="m 0,0 53,0 c 0.553,0 1,-0.447 1,-1 l 0,-3 c 0,-0.553 -0.447,-1 -1,-1 L 0,-5 c -0.553,0 -1,0.447 -1,1 l 0,3 c 0,0.553 0.447,1 1,1"
         style="fill:#bab9bf;fill-opacity:1;fill-rule:nonzero;stroke:none"
         id="path2022" />
    </g>
    <g
       id="g2024"
       transform="matrix(1,0,0,-1,59.571428,99.505059)">
      <path
         d="m 0,0 53,0 c 0.553,0 1,-0.447 1,-1 l 0,-3 c 0,-0.553 -0.447,-1 -1,-1 L 0,-5 c -0.553,0 -1,0.447 -1,1 l 0,3 c 0,0.553 0.447,1 1,1"
         style="fill:#bab9bf;fill-opacity:1;fill-rule:nonzero;stroke:none"
         id="path2026" />
    </g>
    <g
       id="g2028"
       transform="matrix(1,0,0,-1,59.571428,89.505059)">
      <path
         d="m 0,0 53,0 c 0.553,0 1,-0.447 1,-1 l 0,-3 c 0,-0.553 -0.447,-1 -1,-1 L 0,-5 c -0.553,0 -1,0.447 -1,1 l 0,3 c 0,0.553 0.447,1 1,1"
         style="fill:#bab9bf;fill-opacity:1;fill-rule:nonzero;stroke:none"
         id="path2030" />
    </g>
    <g
       id="g2032"
       transform="matrix(1,0,0,-1,59.571428,79.505059)">
      <path
         d="m 0,0 53,0 c 0.553,0 1,-0.447 1,-1 l 0,-3 c 0,-0.553 -0.447,-1 -1,-1 L 0,-5 c -0.553,0 -1,0.447 -1,1 l 0,3 c 0,0.553 0.447,1 1,1"
         style="fill:#bab9bf;fill-opacity:1;fill-rule:nonzero;stroke:none"
         id="path2034" />
    </g>
    <g
       id="g2036"
       transform="matrix(1,0,0,-1,59.571428,4.5050585)">
      <path
         d="m 0,0 43,0 c 0.553,0 1,-0.447 1,-1 l 0,-3 c 0,-0.553 -0.447,-1 -1,-1 L 0,-5 c -0.553,0 -1,0.447 -1,1 l 0,3 c 0,0.553 0.447,1 1,1"
         style="fill:#85858b;fill-opacity:1;fill-rule:nonzero;stroke:none"
         id="path2038" />
    </g>
    <g
       id="g2040"
       transform="matrix(1,0,0,-1,59.571428,109.50506)">
      <path
         d="m 0,0 53,0 c 0.553,0 1,-0.447 1,-1 l 0,-3 c 0,-0.553 -0.447,-1 -1,-1 L 0,-5 c -0.553,0 -1,0.447 -1,1 l 0,3 c 0,0.553 0.447,1 1,1"
         style="fill:#bab9bf;fill-opacity:1;fill-rule:nonzero;stroke:none"
         id="path2042" />
    </g>
  </g>
</svg>
