<?xml version="1.0" encoding="UTF-8" standalone="no"?>
<!-- Created with Inkscape (http://www.inkscape.org/) -->

<svg
   xmlns="http://www.w3.org/2000/svg"
   width="120"
   height="120"
   viewBox="0 0 120 120"
   id="svg13691">
  <defs
     id="defs13693" />
  <g
     id="layer1">
    <g
       id="g1078"
       transform="matrix(1,0,0,-1,85.571514,4.8622)">
      <path
         d="m 0,0 26,0 c 1.104,0 2,-0.896 2,-2 l 0,-51 c 0,-1.104 -0.896,-2 -2,-2 l -26,0 c -1.104,0 -2,0.896 -2,2 l 0,51 c 0,1.104 0.896,2 2,2"
         style="fill:#dad9db;fill-opacity:1;fill-rule:nonzero;stroke:none"
         id="path1080" />
    </g>
    <g
       id="g1082"
       transform="matrix(1,0,0,-1,14.571514,14.8622)">
      <path
         d="m 0,0 58,0 c 0.553,0 1,-0.447 1,-1 l 0,-3 c 0,-0.553 -0.447,-1 -1,-1 L 0,-5 c -0.553,0 -1,0.447 -1,1 l 0,3 c 0,0.553 0.447,1 1,1"
         style="fill:#bab9bf;fill-opacity:1;fill-rule:nonzero;stroke:none"
         id="path1084" />
    </g>
    <g
       id="g1086"
       transform="matrix(1,0,0,-1,14.571514,24.8622)">
      <path
         d="m 0,0 58,0 c 0.553,0 1,-0.447 1,-1 l 0,-3 c 0,-0.553 -0.447,-1 -1,-1 L 0,-5 c -0.553,0 -1,0.447 -1,1 l 0,3 c 0,0.553 0.447,1 1,1"
         style="fill:#bab9bf;fill-opacity:1;fill-rule:nonzero;stroke:none"
         id="path1088" />
    </g>
    <g
       id="g1090"
       transform="matrix(1,0,0,-1,14.571514,34.8622)">
      <path
         d="m 0,0 58,0 c 0.553,0 1,-0.447 1,-1 l 0,-3 c 0,-0.553 -0.447,-1 -1,-1 L 0,-5 c -0.553,0 -1,0.447 -1,1 l 0,3 c 0,0.553 0.447,1 1,1"
         style="fill:#bab9bf;fill-opacity:1;fill-rule:nonzero;stroke:none"
         id="path1092" />
    </g>
    <g
       id="g1094"
       transform="matrix(1,0,0,-1,4.5715143,4.8622)">
      <path
         d="m 0,0 48,0 c 0.553,0 1,-0.447 1,-1 l 0,-3 c 0,-0.553 -0.447,-1 -1,-1 L 0,-5 c -0.553,0 -1,0.447 -1,1 l 0,3 c 0,0.553 0.447,1 1,1"
         style="fill:#85858b;fill-opacity:1;fill-rule:nonzero;stroke:none"
         id="path1096" />
    </g>
    <g
       id="g1098"
       transform="matrix(1,0,0,-1,4.5715143,14.8622)">
      <path
         d="M 0,0 3,0 C 3.553,0 4,-0.447 4,-1 L 4,-4 C 4,-4.553 3.553,-5 3,-5 l -3,0 c -0.553,0 -1,0.447 -1,1 l 0,3 c 0,0.553 0.447,1 1,1"
         style="fill:#bab9bf;fill-opacity:1;fill-rule:nonzero;stroke:none"
         id="path1100" />
    </g>
    <g
       id="g1102"
       transform="matrix(1,0,0,-1,4.5715143,24.8622)">
      <path
         d="M 0,0 3,0 C 3.553,0 4,-0.447 4,-1 L 4,-4 C 4,-4.553 3.553,-5 3,-5 l -3,0 c -0.553,0 -1,0.447 -1,1 l 0,3 c 0,0.553 0.447,1 1,1"
         style="fill:#bab9bf;fill-opacity:1;fill-rule:nonzero;stroke:none"
         id="path1104" />
    </g>
    <g
       id="g1106"
       transform="matrix(1,0,0,-1,4.5715143,34.8622)">
      <path
         d="M 0,0 3,0 C 3.553,0 4,-0.447 4,-1 L 4,-4 C 4,-4.553 3.553,-5 3,-5 l -3,0 c -0.553,0 -1,0.447 -1,1 l 0,3 c 0,0.553 0.447,1 1,1"
         style="fill:#bab9bf;fill-opacity:1;fill-rule:nonzero;stroke:none"
         id="path1108" />
    </g>
    <g
       id="g1110"
       transform="matrix(1,0,0,-1,14.571514,79.8622)">
      <path
         d="m 0,0 58,0 c 0.553,0 1,-0.447 1,-1 l 0,-3 c 0,-0.553 -0.447,-1 -1,-1 L 0,-5 c -0.553,0 -1,0.447 -1,1 l 0,3 c 0,0.553 0.447,1 1,1"
         style="fill:#bab9bf;fill-opacity:1;fill-rule:nonzero;stroke:none"
         id="path1112" />
    </g>
    <g
       id="g1114"
       transform="matrix(1,0,0,-1,14.571514,89.8622)">
      <path
         d="m 0,0 58,0 c 0.553,0 1,-0.447 1,-1 l 0,-3 c 0,-0.553 -0.447,-1 -1,-1 L 0,-5 c -0.553,0 -1,0.447 -1,1 l 0,3 c 0,0.553 0.447,1 1,1"
         style="fill:#bab9bf;fill-opacity:1;fill-rule:nonzero;stroke:none"
         id="path1116" />
    </g>
    <g
       id="g1118"
       transform="matrix(1,0,0,-1,14.571514,99.8622)">
      <path
         d="m 0,0 58,0 c 0.553,0 1,-0.447 1,-1 l 0,-3 c 0,-0.553 -0.447,-1 -1,-1 L 0,-5 c -0.553,0 -1,0.447 -1,1 l 0,3 c 0,0.553 0.447,1 1,1"
         style="fill:#bab9bf;fill-opacity:1;fill-rule:nonzero;stroke:none"
         id="path1120" />
    </g>
    <g
       id="g1122"
       transform="matrix(1,0,0,-1,4.5715143,69.8622)">
      <path
         d="m 0,0 48,0 c 0.553,0 1,-0.447 1,-1 l 0,-3 c 0,-0.553 -0.447,-1 -1,-1 L 0,-5 c -0.553,0 -1,0.447 -1,1 l 0,3 c 0,0.553 0.447,1 1,1"
         style="fill:#85858b;fill-opacity:1;fill-rule:nonzero;stroke:none"
         id="path1124" />
    </g>
    <g
       id="g1126"
       transform="matrix(1,0,0,-1,4.5715143,79.8622)">
      <path
         d="M 0,0 3,0 C 3.553,0 4,-0.447 4,-1 L 4,-4 C 4,-4.553 3.553,-5 3,-5 l -3,0 c -0.553,0 -1,0.447 -1,1 l 0,3 c 0,0.553 0.447,1 1,1"
         style="fill:#bab9bf;fill-opacity:1;fill-rule:nonzero;stroke:none"
         id="path1128" />
    </g>
    <g
       id="g1130"
       transform="matrix(1,0,0,-1,4.5715143,89.8622)">
      <path
         d="M 0,0 3,0 C 3.553,0 4,-0.447 4,-1 L 4,-4 C 4,-4.553 3.553,-5 3,-5 l -3,0 c -0.553,0 -1,0.447 -1,1 l 0,3 c 0,0.553 0.447,1 1,1"
         style="fill:#bab9bf;fill-opacity:1;fill-rule:nonzero;stroke:none"
         id="path1132" />
    </g>
    <g
       id="g1134"
       transform="matrix(1,0,0,-1,4.5715143,99.8622)">
      <path
         d="M 0,0 3,0 C 3.553,0 4,-0.447 4,-1 L 4,-4 C 4,-4.553 3.553,-5 3,-5 l -3,0 c -0.553,0 -1,0.447 -1,1 l 0,3 c 0,0.553 0.447,1 1,1"
         style="fill:#bab9bf;fill-opacity:1;fill-rule:nonzero;stroke:none"
         id="path1136" />
    </g>
    <g
       id="g1138"
       transform="matrix(1,0,0,-1,14.571514,44.8622)">
      <path
         d="m 0,0 58,0 c 0.553,0 1,-0.447 1,-1 l 0,-3 c 0,-0.553 -0.447,-1 -1,-1 L 0,-5 c -0.553,0 -1,0.447 -1,1 l 0,3 c 0,0.553 0.447,1 1,1"
         style="fill:#bab9bf;fill-opacity:1;fill-rule:nonzero;stroke:none"
         id="path1140" />
    </g>
    <g
       id="g1142"
       transform="matrix(1,0,0,-1,4.5715143,44.8622)">
      <path
         d="M 0,0 3,0 C 3.553,0 4,-0.447 4,-1 L 4,-4 C 4,-4.553 3.553,-5 3,-5 l -3,0 c -0.553,0 -1,0.447 -1,1 l 0,3 c 0,0.553 0.447,1 1,1"
         style="fill:#bab9bf;fill-opacity:1;fill-rule:nonzero;stroke:none"
         id="path1144" />
    </g>
    <g
       id="g1146"
       transform="matrix(1,0,0,-1,14.571514,54.8622)">
      <path
         d="m 0,0 58,0 c 0.553,0 1,-0.447 1,-1 l 0,-3 c 0,-0.553 -0.447,-1 -1,-1 L 0,-5 c -0.553,0 -1,0.447 -1,1 l 0,3 c 0,0.553 0.447,1 1,1"
         style="fill:#bab9bf;fill-opacity:1;fill-rule:nonzero;stroke:none"
         id="path1148" />
    </g>
    <g
       id="g1150"
       transform="matrix(1,0,0,-1,4.5715143,54.8622)">
      <path
         d="M 0,0 3,0 C 3.553,0 4,-0.447 4,-1 L 4,-4 C 4,-4.553 3.553,-5 3,-5 l -3,0 c -0.553,0 -1,0.447 -1,1 l 0,3 c 0,0.553 0.447,1 1,1"
         style="fill:#bab9bf;fill-opacity:1;fill-rule:nonzero;stroke:none"
         id="path1152" />
    </g>
    <g
       id="g1154"
       transform="matrix(1,0,0,-1,14.571514,109.8622)">
      <path
         d="m 0,0 58,0 c 0.553,0 1,-0.447 1,-1 l 0,-3 c 0,-0.553 -0.447,-1 -1,-1 L 0,-5 c -0.553,0 -1,0.447 -1,1 l 0,3 c 0,0.553 0.447,1 1,1"
         style="fill:#bab9bf;fill-opacity:1;fill-rule:nonzero;stroke:none"
         id="path1156" />
    </g>
    <g
       id="g1158"
       transform="matrix(1,0,0,-1,4.5715143,109.8622)">
      <path
         d="M 0,0 3,0 C 3.553,0 4,-0.447 4,-1 L 4,-4 C 4,-4.553 3.553,-5 3,-5 l -3,0 c -0.553,0 -1,0.447 -1,1 l 0,3 c 0,0.553 0.447,1 1,1"
         style="fill:#bab9bf;fill-opacity:1;fill-rule:nonzero;stroke:none"
         id="path1160" />
    </g>
    <g
       id="g1162"
       transform="matrix(1,0,0,-1,85.571514,69.8622)">
      <path
         d="m 0,0 26,0 c 1.104,0 2,-0.896 2,-2 l 0,-41 c 0,-1.104 -0.896,-2 -2,-2 l -26,0 c -1.104,0 -2,0.896 -2,2 l 0,41 c 0,1.104 0.896,2 2,2"
         style="fill:#dad9db;fill-opacity:1;fill-rule:nonzero;stroke:none"
         id="path1164" />
    </g>
  </g>
</svg>
