<?xml version="1.0" encoding="UTF-8" standalone="no"?>
<!-- Created with Inkscape (http://www.inkscape.org/) -->

<svg
   xmlns="http://www.w3.org/2000/svg"
   width="120"
   height="120"
   viewBox="0 0 120 120"
   id="svg13691">
  <defs
     id="defs13693" />
  <g
     id="layer1">
    <g
       id="g2060"
       transform="matrix(1,0,0,-1,4.2857,4.8621941)">
      <path
         d="m 0,0 0,-30 20,0 0,22.5 -6.667,7.5 z"
         style="fill:#bab9bf;fill-opacity:1;fill-rule:nonzero;stroke:none"
         id="path2062" />
    </g>
    <g
       id="g2064"
       transform="matrix(1,0,0,-1,17.6187,4.8621941)">
      <path
         d="M 0,0 6.667,-7.5 0,-7.5 Z"
         style="fill:#85858b;fill-opacity:1;fill-rule:nonzero;stroke:none"
         id="path2066" />
    </g>
    <g
       id="g2068"
       transform="matrix(1,0,0,-1,34.2857,4.8621941)">
      <path
         d="m 0,0 0,-30 20,0 0,22.5 -6.667,7.5 z"
         style="fill:#bab9bf;fill-opacity:1;fill-rule:nonzero;stroke:none"
         id="path2070" />
    </g>
    <g
       id="g2072"
       transform="matrix(1,0,0,-1,47.6187,4.8621941)">
      <path
         d="M 0,0 6.667,-7.5 0,-7.5 Z"
         style="fill:#85858b;fill-opacity:1;fill-rule:nonzero;stroke:none"
         id="path2074" />
    </g>
    <g
       id="g2076"
       transform="matrix(1,0,0,-1,64.2857,4.8621941)">
      <path
         d="m 0,0 0,-30 20,0 0,22.5 -6.667,7.5 z"
         style="fill:#bab9bf;fill-opacity:1;fill-rule:nonzero;stroke:none"
         id="path2078" />
    </g>
    <g
       id="g2080"
       transform="matrix(1,0,0,-1,77.6187,4.8621941)">
      <path
         d="M 0,0 6.667,-7.5 0,-7.5 Z"
         style="fill:#85858b;fill-opacity:1;fill-rule:nonzero;stroke:none"
         id="path2082" />
    </g>
    <g
       id="g2084"
       transform="matrix(1,0,0,-1,94.2857,4.8621941)">
      <path
         d="m 0,0 0,-30 20,0 0,22.5 -6.667,7.5 z"
         style="fill:#bab9bf;fill-opacity:1;fill-rule:nonzero;stroke:none"
         id="path2086" />
    </g>
    <g
       id="g2088"
       transform="matrix(1,0,0,-1,107.6187,4.8621941)">
      <path
         d="M 0,0 6.667,-7.5 0,-7.5 Z"
         style="fill:#85858b;fill-opacity:1;fill-rule:nonzero;stroke:none"
         id="path2090" />
    </g>
    <g
       id="g2092"
       transform="matrix(1,0,0,-1,4.2857,44.862194)">
      <path
         d="m 0,0 0,-30 20,0 0,22.5 -6.667,7.5 z"
         style="fill:#bab9bf;fill-opacity:1;fill-rule:nonzero;stroke:none"
         id="path2094" />
    </g>
    <g
       id="g2096"
       transform="matrix(1,0,0,-1,17.6187,44.862194)">
      <path
         d="M 0,0 6.667,-7.5 0,-7.5 Z"
         style="fill:#85858b;fill-opacity:1;fill-rule:nonzero;stroke:none"
         id="path2098" />
    </g>
    <g
       id="g2100"
       transform="matrix(1,0,0,-1,34.2857,44.862194)">
      <path
         d="m 0,0 0,-30 20,0 0,22.5 -6.667,7.5 z"
         style="fill:#bab9bf;fill-opacity:1;fill-rule:nonzero;stroke:none"
         id="path2102" />
    </g>
    <g
       id="g2104"
       transform="matrix(1,0,0,-1,47.6187,44.862194)">
      <path
         d="M 0,0 6.667,-7.5 0,-7.5 Z"
         style="fill:#85858b;fill-opacity:1;fill-rule:nonzero;stroke:none"
         id="path2106" />
    </g>
    <g
       id="g2108"
       transform="matrix(1,0,0,-1,64.2857,44.862194)">
      <path
         d="m 0,0 0,-30 20,0 0,22.5 -6.667,7.5 z"
         style="fill:#bab9bf;fill-opacity:1;fill-rule:nonzero;stroke:none"
         id="path2110" />
    </g>
    <g
       id="g2112"
       transform="matrix(1,0,0,-1,77.6187,44.862194)">
      <path
         d="M 0,0 6.667,-7.5 0,-7.5 Z"
         style="fill:#85858b;fill-opacity:1;fill-rule:nonzero;stroke:none"
         id="path2114" />
    </g>
    <g
       id="g2116"
       transform="matrix(1,0,0,-1,94.2857,44.862194)">
      <path
         d="m 0,0 0,-30 20,0 0,22.5 -6.667,7.5 z"
         style="fill:#bab9bf;fill-opacity:1;fill-rule:nonzero;stroke:none"
         id="path2118" />
    </g>
    <g
       id="g2120"
       transform="matrix(1,0,0,-1,107.6187,44.862194)">
      <path
         d="M 0,0 6.667,-7.5 0,-7.5 Z"
         style="fill:#85858b;fill-opacity:1;fill-rule:nonzero;stroke:none"
         id="path2122" />
    </g>
    <g
       id="g2124"
       transform="matrix(1,0,0,-1,4.2857,84.862194)">
      <path
         d="m 0,0 0,-30 20,0 0,22.5 -6.667,7.5 z"
         style="fill:#bab9bf;fill-opacity:1;fill-rule:nonzero;stroke:none"
         id="path2126" />
    </g>
    <g
       id="g2128"
       transform="matrix(1,0,0,-1,17.6187,84.862194)">
      <path
         d="M 0,0 6.667,-7.5 0,-7.5 Z"
         style="fill:#85858b;fill-opacity:1;fill-rule:nonzero;stroke:none"
         id="path2130" />
    </g>
    <g
       id="g2132"
       transform="matrix(1,0,0,-1,34.2857,84.862194)">
      <path
         d="m 0,0 0,-30 20,0 0,22.5 -6.667,7.5 z"
         style="fill:#bab9bf;fill-opacity:1;fill-rule:nonzero;stroke:none"
         id="path2134" />
    </g>
    <g
       id="g2136"
       transform="matrix(1,0,0,-1,47.6187,84.862194)">
      <path
         d="M 0,0 6.667,-7.5 0,-7.5 Z"
         style="fill:#85858b;fill-opacity:1;fill-rule:nonzero;stroke:none"
         id="path2138" />
    </g>
    <g
       id="g2140"
       transform="matrix(1,0,0,-1,64.2857,84.862194)">
      <path
         d="m 0,0 0,-30 20,0 0,22.5 -6.667,7.5 z"
         style="fill:#bab9bf;fill-opacity:1;fill-rule:nonzero;stroke:none"
         id="path2142" />
    </g>
    <g
       id="g2144"
       transform="matrix(1,0,0,-1,77.6187,84.862194)">
      <path
         d="M 0,0 6.667,-7.5 0,-7.5 Z"
         style="fill:#85858b;fill-opacity:1;fill-rule:nonzero;stroke:none"
         id="path2146" />
    </g>
    <g
       id="g2148"
       transform="matrix(1,0,0,-1,94.2857,84.862194)">
      <path
         d="m 0,0 0,-30 20,0 0,22.5 -6.667,7.5 z"
         style="fill:#bab9bf;fill-opacity:1;fill-rule:nonzero;stroke:none"
         id="path2150" />
    </g>
    <g
       id="g2152"
       transform="matrix(1,0,0,-1,107.6187,84.862194)">
      <path
         d="M 0,0 6.667,-7.5 0,-7.5 Z"
         style="fill:#85858b;fill-opacity:1;fill-rule:nonzero;stroke:none"
         id="path2154" />
    </g>
  </g>
</svg>
