<?xml version="1.0" encoding="UTF-8" standalone="no"?>
<!-- Created with Inkscape (http://www.inkscape.org/) -->

<svg
   xmlns="http://www.w3.org/2000/svg"
   width="120"
   height="120"
   viewBox="0 0 120 120"
   id="svg13691">
  <defs
     id="defs13693" />
  <g
     id="layer1">
    <g
       id="g2376"
       transform="matrix(1,0,0,-1,85.57143,4.14792)">
      <path
         d="m 0,0 26,0 c 1.104,0 2,-0.896 2,-2 l 0,-61 c 0,-1.104 -0.896,-2 -2,-2 l -26,0 c -1.104,0 -2,0.896 -2,2 l 0,61 c 0,1.104 0.896,2 2,2"
         style="fill:#dad9db;fill-opacity:1;fill-rule:nonzero;stroke:none"
         id="path2378" />
    </g>
    <g
       id="g2380"
       transform="matrix(1,0,0,-1,45.57143,4.14792)">
      <path
         d="m 0,0 26,0 c 1.104,0 2,-0.896 2,-2 l 0,-31 c 0,-1.104 -0.896,-2 -2,-2 l -26,0 c -1.104,0 -2,0.896 -2,2 l 0,31 c 0,1.104 0.896,2 2,2"
         style="fill:#dad9db;fill-opacity:1;fill-rule:nonzero;stroke:none"
         id="path2382" />
    </g>
    <g
       id="g2384"
       transform="matrix(1,0,0,-1,5.57143,4.14792)">
      <path
         d="m 0,0 26,0 c 1.104,0 2,-0.896 2,-2 l 0,-41 c 0,-1.104 -0.896,-2 -2,-2 l -26,0 c -1.104,0 -2,0.896 -2,2 l 0,41 c 0,1.104 0.896,2 2,2"
         style="fill:#dad9db;fill-opacity:1;fill-rule:nonzero;stroke:none"
         id="path2386" />
    </g>
    <g
       id="g2388"
       transform="matrix(1,0,0,-1,85.57143,79.14792)">
      <path
         d="m 0,0 26,0 c 1.104,0 2,-0.896 2,-2 l 0,-31 c 0,-1.104 -0.896,-2 -2,-2 l -26,0 c -1.104,0 -2,0.896 -2,2 l 0,31 c 0,1.104 0.896,2 2,2"
         style="fill:#dad9db;fill-opacity:1;fill-rule:nonzero;stroke:none"
         id="path2390" />
    </g>
    <g
       id="g2392"
       transform="matrix(1,0,0,-1,5.57143,59.14792)">
      <path
         d="m 0,0 26,0 c 1.104,0 2,-0.896 2,-2 l 0,-51 c 0,-1.104 -0.896,-2 -2,-2 l -26,0 c -1.104,0 -2,0.896 -2,2 l 0,51 c 0,1.104 0.896,2 2,2"
         style="fill:#dad9db;fill-opacity:1;fill-rule:nonzero;stroke:none"
         id="path2394" />
    </g>
    <g
       id="g2396"
       transform="matrix(1,0,0,-1,45.57143,49.14792)">
      <path
         d="m 0,0 26,0 c 1.104,0 2,-0.896 2,-2 l 0,-61 c 0,-1.104 -0.896,-2 -2,-2 l -26,0 c -1.104,0 -2,0.896 -2,2 l 0,61 c 0,1.104 0.896,2 2,2"
         style="fill:#dad9db;fill-opacity:1;fill-rule:nonzero;stroke:none"
         id="path2398" />
    </g>
    <g
       id="g2400"
       transform="matrix(1,0,0,-1,9.57143,39.14792)">
      <path
         d="m 0,0 18,0 c 0.552,0 1,-0.447 1,-1 l 0,-3 c 0,-0.553 -0.448,-1 -1,-1 L 0,-5 c -0.552,0 -1,0.447 -1,1 l 0,3 c 0,0.553 0.448,1 1,1"
         style="fill:#bab9bf;fill-opacity:1;fill-rule:nonzero;stroke:none"
         id="path2402" />
    </g>
    <g
       id="g2404"
       transform="matrix(1,0,0,-1,9.57143,29.14792)">
      <path
         d="m 0,0 18,0 c 0.552,0 1,-0.447 1,-1 l 0,-3 c 0,-0.553 -0.448,-1 -1,-1 L 0,-5 c -0.552,0 -1,0.447 -1,1 l 0,3 c 0,0.553 0.448,1 1,1"
         style="fill:#bab9bf;fill-opacity:1;fill-rule:nonzero;stroke:none"
         id="path2406" />
    </g>
    <g
       id="g2408"
       transform="matrix(1,0,0,-1,9.57143,94.14792)">
      <path
         d="m 0,0 18,0 c 0.552,0 1,-0.447 1,-1 l 0,-3 c 0,-0.553 -0.448,-1 -1,-1 L 0,-5 c -0.552,0 -1,0.447 -1,1 l 0,3 c 0,0.553 0.448,1 1,1"
         style="fill:#bab9bf;fill-opacity:1;fill-rule:nonzero;stroke:none"
         id="path2410" />
    </g>
    <g
       id="g2412"
       transform="matrix(1,0,0,-1,9.57143,84.14792)">
      <path
         d="m 0,0 18,0 c 0.552,0 1,-0.447 1,-1 l 0,-3 c 0,-0.553 -0.448,-1 -1,-1 L 0,-5 c -0.552,0 -1,0.447 -1,1 l 0,3 c 0,0.553 0.448,1 1,1"
         style="fill:#bab9bf;fill-opacity:1;fill-rule:nonzero;stroke:none"
         id="path2414" />
    </g>
    <g
       id="g2416"
       transform="matrix(1,0,0,-1,9.57143,104.14792)">
      <path
         d="m 0,0 18,0 c 0.552,0 1,-0.447 1,-1 l 0,-3 c 0,-0.553 -0.448,-1 -1,-1 L 0,-5 c -0.552,0 -1,0.447 -1,1 l 0,3 c 0,0.553 0.448,1 1,1"
         style="fill:#bab9bf;fill-opacity:1;fill-rule:nonzero;stroke:none"
         id="path2418" />
    </g>
    <g
       id="g2420"
       transform="matrix(1,0,0,-1,49.57143,29.14792)">
      <path
         d="m 0,0 18,0 c 0.553,0 1,-0.447 1,-1 l 0,-3 c 0,-0.553 -0.447,-1 -1,-1 L 0,-5 c -0.552,0 -1,0.447 -1,1 l 0,3 c 0,0.553 0.448,1 1,1"
         style="fill:#bab9bf;fill-opacity:1;fill-rule:nonzero;stroke:none"
         id="path2422" />
    </g>
    <g
       id="g2424"
       transform="matrix(1,0,0,-1,49.57143,84.14792)">
      <path
         d="m 0,0 18,0 c 0.553,0 1,-0.447 1,-1 l 0,-3 c 0,-0.553 -0.447,-1 -1,-1 L 0,-5 c -0.552,0 -1,0.447 -1,1 l 0,3 c 0,0.553 0.448,1 1,1"
         style="fill:#bab9bf;fill-opacity:1;fill-rule:nonzero;stroke:none"
         id="path2426" />
    </g>
    <g
       id="g2428"
       transform="matrix(1,0,0,-1,49.57143,74.14792)">
      <path
         d="m 0,0 18,0 c 0.553,0 1,-0.447 1,-1 l 0,-3 c 0,-0.553 -0.447,-1 -1,-1 L 0,-5 c -0.552,0 -1,0.447 -1,1 l 0,3 c 0,0.553 0.448,1 1,1"
         style="fill:#bab9bf;fill-opacity:1;fill-rule:nonzero;stroke:none"
         id="path2430" />
    </g>
    <g
       id="g2432"
       transform="matrix(1,0,0,-1,49.57143,94.14792)">
      <path
         d="m 0,0 18,0 c 0.553,0 1,-0.447 1,-1 l 0,-3 c 0,-0.553 -0.447,-1 -1,-1 L 0,-5 c -0.552,0 -1,0.447 -1,1 l 0,3 c 0,0.553 0.448,1 1,1"
         style="fill:#bab9bf;fill-opacity:1;fill-rule:nonzero;stroke:none"
         id="path2434" />
    </g>
    <g
       id="g2436"
       transform="matrix(1,0,0,-1,49.57143,104.14792)">
      <path
         d="m 0,0 18,0 c 0.553,0 1,-0.447 1,-1 l 0,-3 c 0,-0.553 -0.447,-1 -1,-1 L 0,-5 c -0.552,0 -1,0.447 -1,1 l 0,3 c 0,0.553 0.448,1 1,1"
         style="fill:#bab9bf;fill-opacity:1;fill-rule:nonzero;stroke:none"
         id="path2438" />
    </g>
    <g
       id="g2440"
       transform="matrix(1,0,0,-1,89.57143,39.14792)">
      <path
         d="m 0,0 18,0 c 0.553,0 1,-0.447 1,-1 l 0,-3 c 0,-0.553 -0.447,-1 -1,-1 L 0,-5 c -0.553,0 -1,0.447 -1,1 l 0,3 c 0,0.553 0.447,1 1,1"
         style="fill:#bab9bf;fill-opacity:1;fill-rule:nonzero;stroke:none"
         id="path2442" />
    </g>
    <g
       id="g2444"
       transform="matrix(1,0,0,-1,89.57143,29.14792)">
      <path
         d="m 0,0 18,0 c 0.553,0 1,-0.447 1,-1 l 0,-3 c 0,-0.553 -0.447,-1 -1,-1 L 0,-5 c -0.553,0 -1,0.447 -1,1 l 0,3 c 0,0.553 0.447,1 1,1"
         style="fill:#bab9bf;fill-opacity:1;fill-rule:nonzero;stroke:none"
         id="path2446" />
    </g>
    <g
       id="g2448"
       transform="matrix(1,0,0,-1,89.57143,49.14792)">
      <path
         d="m 0,0 18,0 c 0.553,0 1,-0.447 1,-1 l 0,-3 c 0,-0.553 -0.447,-1 -1,-1 L 0,-5 c -0.553,0 -1,0.447 -1,1 l 0,3 c 0,0.553 0.447,1 1,1"
         style="fill:#bab9bf;fill-opacity:1;fill-rule:nonzero;stroke:none"
         id="path2450" />
    </g>
    <g
       id="g2452"
       transform="matrix(1,0,0,-1,89.57143,59.14792)">
      <path
         d="m 0,0 18,0 c 0.553,0 1,-0.447 1,-1 l 0,-3 c 0,-0.553 -0.447,-1 -1,-1 L 0,-5 c -0.553,0 -1,0.447 -1,1 l 0,3 c 0,0.553 0.447,1 1,1"
         style="fill:#bab9bf;fill-opacity:1;fill-rule:nonzero;stroke:none"
         id="path2454" />
    </g>
    <g
       id="g2456"
       transform="matrix(1,0,0,-1,89.57143,104.14792)">
      <path
         d="m 0,0 18,0 c 0.553,0 1,-0.447 1,-1 l 0,-3 c 0,-0.553 -0.447,-1 -1,-1 L 0,-5 c -0.553,0 -1,0.447 -1,1 l 0,3 c 0,0.553 0.447,1 1,1"
         style="fill:#bab9bf;fill-opacity:1;fill-rule:nonzero;stroke:none"
         id="path2458" />
    </g>
    <g
       id="g2460"
       transform="matrix(1,0,0,-1,5.57143,4.14792)">
      <path
         d="m 0,0 26,0 c 1.104,0 2,-0.896 2,-2 l 0,-16 c 0,-1.104 -0.896,-2 -2,-2 l -26,0 c -1.104,0 -2,0.896 -2,2 l 0,16 c 0,1.104 0.896,2 2,2"
         style="fill:#bbb9bf;fill-opacity:1;fill-rule:nonzero;stroke:none"
         id="path2462" />
    </g>
    <g
       id="g2464"
       transform="matrix(1,0,0,-1,45.57143,4.14792)">
      <path
         d="m 0,0 26,0 c 1.104,0 2,-0.896 2,-2 l 0,-16 c 0,-1.104 -0.896,-2 -2,-2 l -26,0 c -1.104,0 -2,0.896 -2,2 l 0,16 c 0,1.104 0.896,2 2,2"
         style="fill:#bbb9bf;fill-opacity:1;fill-rule:nonzero;stroke:none"
         id="path2466" />
    </g>
    <g
       id="g2468"
       transform="matrix(1,0,0,-1,85.57143,4.14792)">
      <path
         d="m 0,0 26,0 c 1.104,0 2,-0.896 2,-2 l 0,-16 c 0,-1.104 -0.896,-2 -2,-2 l -26,0 c -1.104,0 -2,0.896 -2,2 l 0,16 c 0,1.104 0.896,2 2,2"
         style="fill:#bbb9bf;fill-opacity:1;fill-rule:nonzero;stroke:none"
         id="path2470" />
    </g>
    <g
       id="g2472"
       transform="matrix(1,0,0,-1,5.57143,59.14792)">
      <path
         d="m 0,0 26,0 c 1.104,0 2,-0.896 2,-2 l 0,-16 c 0,-1.104 -0.896,-2 -2,-2 l -26,0 c -1.104,0 -2,0.896 -2,2 l 0,16 c 0,1.104 0.896,2 2,2"
         style="fill:#bbb9bf;fill-opacity:1;fill-rule:nonzero;stroke:none"
         id="path2474" />
    </g>
    <g
       id="g2476"
       transform="matrix(1,0,0,-1,45.57143,49.14792)">
      <path
         d="m 0,0 26,0 c 1.104,0 2,-0.896 2,-2 l 0,-16 c 0,-1.104 -0.896,-2 -2,-2 l -26,0 c -1.104,0 -2,0.896 -2,2 l 0,16 c 0,1.104 0.896,2 2,2"
         style="fill:#bbb9bf;fill-opacity:1;fill-rule:nonzero;stroke:none"
         id="path2478" />
    </g>
    <g
       id="g2480"
       transform="matrix(1,0,0,-1,85.57143,79.14792)">
      <path
         d="m 0,0 26,0 c 1.104,0 2,-0.896 2,-2 l 0,-16 c 0,-1.104 -0.896,-2 -2,-2 l -26,0 c -1.104,0 -2,0.896 -2,2 l 0,16 c 0,1.104 0.896,2 2,2"
         style="fill:#bbb9bf;fill-opacity:1;fill-rule:nonzero;stroke:none"
         id="path2482" />
    </g>
  </g>
</svg>
