<?xml version="1.0" encoding="UTF-8" standalone="no"?>
<!-- Created with Inkscape (http://www.inkscape.org/) -->

<svg
   xmlns="http://www.w3.org/2000/svg"
   width="120"
   height="120"
   viewBox="0 0 120 120"
   id="svg13691">
  <defs
     id="defs13693" />
  <g
     id="layer1">
    <g
       id="g3288"
       transform="matrix(1,0,0,-1,45.999994,39.50507)">
      <path
         d="m 0,0 68,0 c 0.553,0 1,-0.447 1,-1 l 0,-3 c 0,-0.553 -0.447,-1 -1,-1 L 0,-5 c -0.553,0 -1,0.447 -1,1 l 0,3 c 0,0.553 0.447,1 1,1"
         style="fill:#bab9bf;fill-opacity:1;fill-rule:nonzero;stroke:none"
         id="path3290" />
    </g>
    <g
       id="g3292"
       transform="matrix(1,0,0,-1,45.999994,29.50507)">
      <path
         d="m 0,0 68,0 c 0.553,0 1,-0.447 1,-1 l 0,-3 c 0,-0.553 -0.447,-1 -1,-1 L 0,-5 c -0.553,0 -1,0.447 -1,1 l 0,3 c 0,0.553 0.447,1 1,1"
         style="fill:#bab9bf;fill-opacity:1;fill-rule:nonzero;stroke:none"
         id="path3294" />
    </g>
    <g
       id="g3296"
       transform="matrix(1,0,0,-1,45.999994,19.50507)">
      <path
         d="m 0,0 68,0 c 0.553,0 1,-0.447 1,-1 l 0,-3 c 0,-0.553 -0.447,-1 -1,-1 L 0,-5 c -0.553,0 -1,0.447 -1,1 l 0,3 c 0,0.553 0.447,1 1,1"
         style="fill:#bab9bf;fill-opacity:1;fill-rule:nonzero;stroke:none"
         id="path3298" />
    </g>
    <g
       id="g3300"
       transform="matrix(1,0,0,-1,5.9999942,4.5050699)">
      <path
         d="m 0,0 48,0 c 0.553,0 1,-0.447 1,-1 l 0,-3 c 0,-0.553 -0.447,-1 -1,-1 L 0,-5 c -0.553,0 -1,0.447 -1,1 l 0,3 c 0,0.553 0.447,1 1,1"
         style="fill:#85858b;fill-opacity:1;fill-rule:nonzero;stroke:none"
         id="path3302" />
    </g>
    <g
       id="g3304"
       transform="matrix(1,0,0,-1,45.999994,49.50507)">
      <path
         d="m 0,0 68,0 c 0.553,0 1,-0.447 1,-1 l 0,-3 c 0,-0.553 -0.447,-1 -1,-1 L 0,-5 c -0.553,0 -1,0.447 -1,1 l 0,3 c 0,0.553 0.447,1 1,1"
         style="fill:#bab9bf;fill-opacity:1;fill-rule:nonzero;stroke:none"
         id="path3306" />
    </g>
    <g
       id="g3308"
       transform="matrix(1,0,0,-1,5.9999942,59.50507)">
      <path
         d="m 0,0 108,0 c 0.553,0 1,-0.447 1,-1 l 0,-3 c 0,-0.553 -0.447,-1 -1,-1 L 0,-5 c -0.553,0 -1,0.447 -1,1 l 0,3 c 0,0.553 0.447,1 1,1"
         style="fill:#bab9bf;fill-opacity:1;fill-rule:nonzero;stroke:none"
         id="path3310" />
    </g>
    <g
       id="g3312"
       transform="matrix(1,0,0,-1,5.9999942,79.50507)">
      <path
         d="m 0,0 108,0 c 0.553,0 1,-0.447 1,-1 l 0,-3 c 0,-0.553 -0.447,-1 -1,-1 L 0,-5 c -0.553,0 -1,0.447 -1,1 l 0,3 c 0,0.553 0.447,1 1,1"
         style="fill:#bab9bf;fill-opacity:1;fill-rule:nonzero;stroke:none"
         id="path3314" />
    </g>
    <g
       id="g3316"
       transform="matrix(1,0,0,-1,5.9999942,69.50507)">
      <path
         d="m 0,0 108,0 c 0.553,0 1,-0.447 1,-1 l 0,-3 c 0,-0.553 -0.447,-1 -1,-1 L 0,-5 c -0.553,0 -1,0.447 -1,1 l 0,3 c 0,0.553 0.447,1 1,1"
         style="fill:#bab9bf;fill-opacity:1;fill-rule:nonzero;stroke:none"
         id="path3318" />
    </g>
    <g
       id="g3320"
       transform="matrix(1,0,0,-1,5.9999942,89.50507)">
      <path
         d="m 0,0 108,0 c 0.553,0 1,-0.447 1,-1 l 0,-3 c 0,-0.553 -0.447,-1 -1,-1 L 0,-5 c -0.553,0 -1,0.447 -1,1 l 0,3 c 0,0.553 0.447,1 1,1"
         style="fill:#bab9bf;fill-opacity:1;fill-rule:nonzero;stroke:none"
         id="path3322" />
    </g>
    <g
       id="g3324"
       transform="matrix(1,0,0,-1,5.9999942,99.50507)">
      <path
         d="m 0,0 108,0 c 0.553,0 1,-0.447 1,-1 l 0,-3 c 0,-0.553 -0.447,-1 -1,-1 L 0,-5 c -0.553,0 -1,0.447 -1,1 l 0,3 c 0,0.553 0.447,1 1,1"
         style="fill:#bab9bf;fill-opacity:1;fill-rule:nonzero;stroke:none"
         id="path3326" />
    </g>
    <g
       id="g3328"
       transform="matrix(1,0,0,-1,5.9999942,109.50507)">
      <path
         d="m 0,0 108,0 c 0.553,0 1,-0.447 1,-1 l 0,-3 c 0,-0.553 -0.447,-1 -1,-1 L 0,-5 c -0.553,0 -1,0.447 -1,1 l 0,3 c 0,0.553 0.447,1 1,1"
         style="fill:#bab9bf;fill-opacity:1;fill-rule:nonzero;stroke:none"
         id="path3330" />
    </g>
    <g
       id="g3332"
       transform="matrix(1,0,0,-1,6.9999942,19.50507)">
      <path
         d="m 0,0 31,0 c 1.104,0 2,-0.896 2,-2 l 0,-31 c 0,-1.104 -0.896,-2 -2,-2 l -31,0 c -1.104,0 -2,0.896 -2,2 l 0,31 c 0,1.104 0.896,2 2,2"
         style="fill:#dad9db;fill-opacity:1;fill-rule:nonzero;stroke:none"
         id="path3334" />
    </g>
    <g
       id="g3336"
       transform="matrix(1,0,0,-1,33.813494,45.92697)">
      <path
         d="M 0,0 0,0 C 0,0 -5.657,6.863 -11.313,6.863 -16.97,6.863 -22.627,0 -22.627,0 c 0,0 -1.414,-2.745 1.414,-2.745 l 19.799,0 C 1.414,-2.745 0,0 0,0 m -7.193,18.779 0,0 c -2.237,2.412 -5.863,2.412 -8.1,0 -2.236,-2.412 -2.236,-6.322 0,-8.734 2.237,-2.412 5.863,-2.412 8.1,0 2.237,2.412 2.237,6.322 0,8.734"
         style="fill:#75767b;fill-opacity:1;fill-rule:nonzero;stroke:none"
         id="path3338" />
    </g>
  </g>
</svg>
