<?xml version="1.0" encoding="UTF-8" standalone="no"?>
<svg width="255px" height="255px" viewBox="0 0 255 255" version="1.1" xmlns="http://www.w3.org/2000/svg" xmlns:xlink="http://www.w3.org/1999/xlink" xmlns:sketch="http://www.bohemiancoding.com/sketch/ns">
    <!-- Generator: Sketch 3.3.2 (12043) - http://www.bohemiancoding.com/sketch -->
    <title>Oval 1</title>
    <desc>Created with Sketch.</desc>
    <defs></defs>
    <g id="Page-1" stroke="none" stroke-width="1" fill="none" fill-rule="evenodd" sketch:type="MSPage">
        <path d="M211.256486,153.432203 C200.39189,189.083488 167.245109,215.021186 128.040254,215.021186 C88.8353993,215.021186 55.6886184,189.083488 44.8240224,153.432203 L211.256486,153.432203 Z M211.256486,102.648305 C200.39189,66.9970201 167.245109,41.059322 128.040254,41.059322 C88.8353993,41.059322 55.6886184,66.9970201 44.8240224,102.648305 L211.256486,102.648305 Z M127.5,255 C197.916306,255 255,197.916306 255,127.5 C255,57.0836944 197.916306,0 127.5,0 C57.0836944,0 0,57.0836944 0,127.5 C0,197.916306 57.0836944,255 127.5,255 Z" id="Oval-1" fill="#D8D8D8" sketch:type="MSShapeGroup" transform="translate(127.500000, 127.500000) rotate(-60.000000) translate(-127.500000, -127.500000) "></path>
    </g>
</svg>