<?xml version="1.0" encoding="UTF-8" standalone="no"?>
<svg width="140px" height="42px" viewBox="0 0 140 42" version="1.1" xmlns="http://www.w3.org/2000/svg" xmlns:xlink="http://www.w3.org/1999/xlink" xmlns:sketch="http://www.bohemiancoding.com/sketch/ns">
    <!-- Generator: Sketch 3.3.3 (12072) - http://www.bohemiancoding.com/sketch -->
    <title>Slice 1</title>
    <desc>Created with Sketch.</desc>
    <defs></defs>
    <g id="Page-1" stroke="none" stroke-width="1" fill="none" fill-rule="evenodd" sketch:type="MSPage">
        <rect id="Rectangle-1-Copy-3" fill="#FF9B3F" sketch:type="MSShapeGroup" x="0" y="-28" width="1229" height="94"></rect>
        <rect id="Rectangle-1-Copy-2" fill="#F7F7F7" sketch:type="MSShapeGroup" x="0" y="-18" width="1229" height="84"></rect>
        <path d="M138.5,0.5 L138.5,42.5" id="Line-Copy" stroke="#049CDB" sketch:type="MSShapeGroup"></path>
        <path d="M44.7666016,16.0888672 L46.5332031,16.0888672 L46.5332031,29 L44.7666016,29 L44.7666016,16.0888672 Z M49.3720703,16.0888672 L51.4375,16.0888672 L57.9589844,26.5478516 L57.9589844,16.0888672 L59.6201172,16.0888672 L59.6201172,29 L57.6601562,29 L51.0419922,18.5498047 L51.0419922,29 L49.3720703,29 L49.3720703,16.0888672 Z M62.5380859,16.0888672 L71.4941406,16.0888672 L71.4941406,17.6708984 L64.2871094,17.6708984 L64.2871094,21.5908203 L70.6240234,21.5908203 L70.6240234,23.1289062 L64.2871094,23.1289062 L64.2871094,29 L62.5380859,29 L62.5380859,16.0888672 Z M84.0009766,17.9345703 C84.8564496,19.0771542 85.2841797,20.5390536 85.2841797,22.3203125 C85.2841797,24.2480565 84.7949268,25.8505796 83.8164062,27.1279297 C82.667963,28.6279372 81.0302841,29.3779297 78.9033203,29.3779297 C76.9169823,29.3779297 75.3554744,28.7216863 74.21875,27.4091797 C73.2050731,26.1435484 72.6982422,24.543955 72.6982422,22.6103516 C72.6982422,20.8642491 73.1318316,19.3701234 73.9990234,18.1279297 C75.1123103,16.5341717 76.7587782,15.7373047 78.9384766,15.7373047 C81.2177848,15.7373047 82.905268,16.4697192 84.0009766,17.9345703 L84.0009766,17.9345703 Z M82.4584961,26.1567383 C83.1469761,25.0522406 83.4912109,23.7822337 83.4912109,22.3466797 C83.4912109,20.829094 83.0942423,19.6074265 82.300293,18.6816406 C81.5063437,17.7558547 80.4209053,17.2929688 79.0439453,17.2929688 C77.7080011,17.2929688 76.6181683,17.7514603 75.7744141,18.668457 C74.9306598,19.5854538 74.5087891,20.9374911 74.5087891,22.7246094 C74.5087891,24.154304 74.8706019,25.3598584 75.5942383,26.3413086 C76.3178747,27.3227588 77.4912028,27.8134766 79.1142578,27.8134766 C80.6552811,27.8134766 81.7700161,27.261236 82.4584961,26.1567383 L82.4584961,26.1567383 Z" id="INFO" fill="#049CDB" sketch:type="MSShapeGroup"></path>
    </g>
</svg>